<svg width="24" height="25" viewBox="0 0 24 25" fill="none" xmlns="http://www.w3.org/2000/svg">
<g id="hugeicons:wifi-location">
<g id="Group">
<path id="Vector" d="M12 2.5C16.87 2.5 21 6.533 21 11.426C21 16.396 16.803 19.885 12.927 22.256C12.644 22.4153 12.3247 22.499 12 22.499C11.6753 22.499 11.356 22.4153 11.073 22.256C7.203 19.863 3 16.415 3 11.427C3 6.533 7.13 2.5 12 2.5Z" stroke="black" stroke-width="1.5" stroke-linecap="round" stroke-linejoin="round"/>
<path id="Vector_2" d="M8 9.978C9.149 9.043 10.52 8.5 11.995 8.5C13.473 8.5 14.849 9.047 16 9.987M14.174 12.5C13.5221 12.0856 12.7664 11.8637 11.994 11.86C11.2255 11.8638 10.4736 12.0835 9.824 12.494M12 15.5H12.006" stroke="black" stroke-width="1.5" stroke-linecap="round" stroke-linejoin="round"/>
</g>
</g>
</svg>
