<svg width="24" height="25" viewBox="0 0 24 25" fill="none" xmlns="http://www.w3.org/2000/svg">
<g id="material-symbols:gas-meter">
<path id="Vector" d="M8 22.5C6.9 22.5 5.95833 22.1083 5.175 21.325C4.39167 20.5417 4 19.6 4 18.5V8.5C4 7.4 4.39167 6.45833 5.175 5.675C5.95833 4.89167 6.9 4.5 8 4.5H9V2.5H11V4.5H13V2.5H15V4.5H16C17.1 4.5 18.0417 4.89167 18.825 5.675C19.6083 6.45833 20 7.4 20 8.5V18.5C20 19.6 19.6083 20.5417 18.825 21.325C18.0417 22.1083 17.1 22.5 16 22.5H8ZM8 10.5H16V8.5H8V10.5ZM12 18.5C12.7 18.5 13.2917 18.2627 13.775 17.788C14.2583 17.3133 14.5 16.734 14.5 16.05C14.5 15.5 14.3417 15.0293 14.025 14.638C13.7083 14.2467 13.0333 13.4507 12 12.25C10.95 13.45 10.271 14.25 9.963 14.65C9.655 15.05 9.50067 15.5167 9.5 16.05C9.5 16.7333 9.74167 17.3127 10.225 17.788C10.7083 18.2633 11.3 18.5007 12 18.5Z" fill="black"/>
</g>
</svg>
