<svg width="24" height="24" viewBox="0 0 24 24" fill="none" xmlns="http://www.w3.org/2000/svg">
<g id="Component 1">
<path id="Vector" d="M17.6818 17.6875C17.3382 17.6875 17.0087 17.5492 16.7658 17.3031C16.5228 17.0569 16.3864 16.7231 16.3864 16.375C16.3864 16.0269 16.5228 15.6931 16.7658 15.4469C17.0087 15.2008 17.3382 15.0625 17.6818 15.0625C18.0254 15.0625 18.3549 15.2008 18.5978 15.4469C18.8408 15.6931 18.9773 16.0269 18.9773 16.375C18.9773 16.7231 18.8408 17.0569 18.5978 17.3031C18.3549 17.5492 18.0254 17.6875 17.6818 17.6875ZM18.9773 9.8125L20.67 12H16.8182V9.8125M7.31818 17.6875C6.97461 17.6875 6.6451 17.5492 6.40216 17.3031C6.15921 17.0569 6.02273 16.7231 6.02273 16.375C6.02273 16.0269 6.15921 15.6931 6.40216 15.4469C6.6451 15.2008 6.97461 15.0625 7.31818 15.0625C7.66176 15.0625 7.99126 15.2008 8.23421 15.4469C8.47715 15.6931 8.61364 16.0269 8.61364 16.375C8.61364 16.7231 8.47715 17.0569 8.23421 17.3031C7.99126 17.5492 7.66176 17.6875 7.31818 17.6875ZM19.4091 8.5H16.8182V5H4.72727C3.76864 5 3 5.77875 3 6.75V16.375H4.72727C4.72727 17.0712 5.00024 17.7389 5.48613 18.2312C5.97202 18.7234 6.63103 19 7.31818 19C8.00533 19 8.66434 18.7234 9.15023 18.2312C9.63612 17.7389 9.90909 17.0712 9.90909 16.375H15.0909C15.0909 17.0712 15.3639 17.7389 15.8498 18.2312C16.3357 18.7234 16.9947 19 17.6818 19C18.369 19 19.028 18.7234 19.5139 18.2312C19.9998 17.7389 20.2727 17.0712 20.2727 16.375H22V12L19.4091 8.5Z" fill="#FF6D00"/>
</g>
</svg>
