<svg width="24" height="24" viewBox="0 0 24 24" fill="none" xmlns="http://www.w3.org/2000/svg">
<g id="Component 1">
<path id="Vector" fill-rule="evenodd" clip-rule="evenodd" d="M10.8358 3.40023C11.2684 3.13841 11.7644 3 12.2701 3C12.7757 3 13.2717 3.13841 13.7043 3.40023L14.7228 4.02323C16.1518 4.89673 17.7793 5.09123 19.4143 5.28723C19.9428 5.35073 20.4718 5.41373 20.9953 5.50023C20.9953 5.50023 21.0068 6.41723 20.9948 6.83323L20.8903 10.4087C20.8003 13.4752 19.4368 16.3827 17.0978 18.4957C15.9943 19.4922 14.8528 20.3927 13.5413 21.1407C13.1548 21.3592 12.7214 21.4817 12.2777 21.498C11.834 21.5142 11.3928 21.4238 10.9913 21.2342C9.47682 20.5142 8.13582 19.6012 6.91132 18.4957C4.57232 16.3827 3.20882 13.4752 3.11932 10.4087L3.01532 6.84473C3.00282 6.42273 3.01532 5.50023 3.01532 5.50023C3.44032 5.45023 3.87332 5.40873 4.30982 5.36723C6.23632 5.18423 8.22682 4.99523 9.85982 3.99723L10.8358 3.40023ZM11.0003 11.0002V7.50023H13.0003V11.0002H16.5003V13.0002H13.0003V16.5002H11.0003V13.0002H7.50032V11.0002H11.0003Z" fill="#FF6D00"/>
</g>
</svg>
