<svg width="18" height="22" viewBox="0 0 18 22" fill="none" xmlns="http://www.w3.org/2000/svg">
<g id="Group">
<path id="Vector" d="M9.06551 17.0005C10.1109 17.0126 11.1482 16.8156 12.1163 16.4211C13.0845 16.0266 13.964 15.4425 14.7033 14.7033C15.4425 13.964 16.0266 13.0845 16.4211 12.1163C16.8156 11.1482 17.0126 10.1109 17.0005 9.06551C16.9645 4.64651 13.3545 1.03551 8.93551 1.00051C7.89016 0.988584 6.85297 1.18568 5.88486 1.58023C4.91676 1.97478 4.03726 2.55882 3.29804 3.29804C2.55882 4.03726 1.97478 4.91676 1.58023 5.88486C1.18568 6.85297 0.988584 7.89016 1.00051 8.93551C1.03651 13.3545 4.64651 16.9655 9.06551 17.0005Z" fill="#FF6D00" stroke="#DDDDDD" stroke-linecap="round"/>
<path id="Vector_2" d="M8.25098 21.001C8.25098 21.1999 8.32999 21.3907 8.47065 21.5313C8.6113 21.672 8.80206 21.751 9.00098 21.751C9.19989 21.751 9.39065 21.672 9.53131 21.5313C9.67196 21.3907 9.75098 21.1999 9.75098 21.001H8.25098ZM8.25098 20.001V21.001H9.75098V20.001H8.25098Z" fill="#DDDDDD"/>
<path id="Vector_3" d="M9.85798 6.00098L7.00098 9.00098H11.001L8.14398 12.001" stroke="#DDDDDD" stroke-linecap="round" stroke-linejoin="round"/>
<g id="Vector_4">
<path d="M10.501 17.001V18.501C10.501 18.967 10.501 19.2 10.425 19.384C10.3233 19.6285 10.1287 19.8227 9.88398 19.924C9.69998 20.001 9.46698 20.001 9.00098 20.001C8.53498 20.001 8.30198 20.001 8.11798 19.925C7.87344 19.8233 7.67923 19.6287 7.57798 19.384C7.50098 19.2 7.50098 18.967 7.50098 18.501V17.001" fill="#FF6D00"/>
<path d="M10.501 17.001V18.501C10.501 18.967 10.501 19.2 10.425 19.384C10.3233 19.6285 10.1287 19.8227 9.88398 19.924C9.69998 20.001 9.46698 20.001 9.00098 20.001C8.53498 20.001 8.30198 20.001 8.11798 19.925C7.87344 19.8233 7.67923 19.6287 7.57798 19.384C7.50098 19.2 7.50098 18.967 7.50098 18.501V17.001" stroke="#DDDDDD"/>
</g>
</g>
</svg>
