<svg width="18" height="20" viewBox="0 0 18 20" fill="none" xmlns="http://www.w3.org/2000/svg">
<g id="Group">
<path id="Vector" d="M4.99987 19H12.0259C12.656 19 13.2773 18.8511 13.839 18.5654C14.4007 18.2798 14.8869 17.8654 15.2581 17.3562C15.6293 16.847 15.875 16.2573 15.975 15.6351C16.0751 15.0129 16.0267 14.3759 15.8339 13.776L14.1279 8.47C13.8039 7.4622 13.1685 6.58321 12.3131 5.95963C11.4577 5.33604 10.4265 5.00003 9.36787 5H7.65787C6.5993 5.00003 5.56804 5.33604 4.71263 5.95963C3.85722 6.58321 3.2218 7.4622 2.89787 8.47L1.19187 13.776C0.999045 14.3759 0.950688 15.0129 1.05074 15.6351C1.15079 16.2573 1.39643 16.847 1.76763 17.3562C2.13882 17.8654 2.62508 18.2798 3.18678 18.5654C3.74848 18.8511 4.36972 19 4.99987 19ZM11.5129 1C10.8462 3.66667 9.84621 5 8.51287 5C7.17954 5 6.17954 3.66667 5.51287 1H11.5129Z" fill="#FF6D00" stroke="#FF6D00" stroke-width="2" stroke-linecap="round" stroke-linejoin="round"/>
<path id="Vector_2" d="M10.5127 9H8.0127C7.61487 9 7.23334 9.15804 6.95203 9.43934C6.67073 9.72064 6.5127 10.1022 6.5127 10.5C6.5127 10.8978 6.67073 11.2794 6.95203 11.5607C7.23334 11.842 7.61487 12 8.0127 12H9.0127C9.41052 12 9.79205 12.158 10.0734 12.4393C10.3547 12.7206 10.5127 13.1022 10.5127 13.5C10.5127 13.8978 10.3547 14.2794 10.0734 14.5607C9.79205 14.842 9.41052 15 9.0127 15H6.5127M8.5127 8V9M8.5127 15V16" stroke="#FF6D00" stroke-width="2" stroke-linecap="round" stroke-linejoin="round"/>
</g>
</svg>
