<svg width="24" height="24" viewBox="0 0 24 24" fill="none" xmlns="http://www.w3.org/2000/svg">
<g id="Component 1">
<path id="Vector" d="M17.9353 1.28613C18.4513 1.28613 18.8584 1.45042 19.1567 1.77899C19.4333 2.08356 19.5816 2.48942 19.6016 2.99656L19.6037 3.11528V20.8856C19.6037 21.4416 19.4546 21.8854 19.1563 22.2171C18.8797 22.5251 18.509 22.6901 18.0441 22.7121L17.9353 22.7147H5.95456C5.43856 22.7147 5.03142 22.549 4.73313 22.2176C4.45656 21.909 4.30828 21.5041 4.28828 21.003L4.28613 20.8856V3.11528C4.28613 2.55242 4.43528 2.10685 4.73356 1.77856C5.01013 1.47399 5.38085 1.3107 5.8457 1.2887L5.95456 1.28613H17.9353ZM14.7493 17.0661H9.23099C9.00356 17.0661 8.81928 17.1347 8.67813 17.2718C8.55356 17.3941 8.48413 17.5547 8.46985 17.7536L8.46728 17.8298V21.0964H15.513V17.8298C15.513 17.5956 15.4444 17.4097 15.3073 17.2723C15.185 17.15 15.0244 17.0821 14.8256 17.0687L14.7493 17.0661ZM10.5578 12.5031H8.54785C8.2927 12.5031 8.15599 12.6274 8.1377 12.876L8.13556 12.9351V14.8851C8.13556 15.1526 8.25413 15.2958 8.49128 15.315L8.54785 15.3171H10.5578C10.8267 15.3171 10.9701 15.1917 10.9881 14.9408L10.9903 14.8851V12.9351C10.9903 12.6666 10.8647 12.5231 10.6136 12.5048L10.5578 12.5031ZM15.4127 12.5031H13.4126C13.1511 12.5031 13.0111 12.6274 12.9926 12.876L12.9904 12.9351V14.8851C12.9904 15.1526 13.1117 15.2958 13.3543 15.315L13.4126 15.3171H15.4127C15.6816 15.3171 15.8248 15.1917 15.8426 14.9408L15.8447 14.8851V12.9351C15.8447 12.6666 15.7191 12.5231 15.468 12.5048L15.4127 12.5031ZM10.5578 8.40213H8.54785C8.2927 8.40213 8.15599 8.52642 8.1377 8.77499L8.13556 8.83456V10.7846C8.13556 11.052 8.25413 11.1953 8.49128 11.2144L8.54785 11.2166H10.5578C10.8267 11.2166 10.9701 11.091 10.9881 10.8398L10.9903 10.7841V8.83413C10.9903 8.56528 10.8647 8.42199 10.6136 8.40428L10.5578 8.40213ZM15.4127 8.40213H13.4126C13.1511 8.40213 13.0111 8.52642 12.9926 8.77499L12.9904 8.83456V10.7846C12.9904 11.052 13.1117 11.1953 13.3543 11.2144L13.4126 11.2166H15.4127C15.6816 11.2166 15.8248 11.091 15.8426 10.8398L15.8447 10.7841V8.83413C15.8447 8.56528 15.7191 8.42199 15.468 8.40428L15.4127 8.40213ZM10.5578 4.30156H8.54785C8.2927 4.30156 8.15599 4.42585 8.1377 4.67442L8.13556 4.73356V6.68356C8.13556 6.95099 8.25413 7.09428 8.49128 7.11342L8.54785 7.11556H10.5578C10.8267 7.11556 10.9701 6.99013 10.9881 6.73928L10.9903 6.68356V4.73356C10.9903 4.46499 10.8647 4.32156 10.6136 4.30328L10.5578 4.30156ZM15.4127 4.30156H13.4126C13.1511 4.30156 13.0111 4.42585 12.9926 4.67442L12.9904 4.73356V6.68356C12.9904 6.95099 13.1117 7.09428 13.3543 7.11342L13.4126 7.11556H15.4127C15.6816 7.11556 15.8248 6.99013 15.8426 6.73928L15.8447 6.68356V4.73356C15.8447 4.46499 15.7191 4.32156 15.468 4.30328L15.4127 4.30156Z" fill="#FF6D00"/>
</g>
</svg>
