<svg width="16" height="20" viewBox="0 0 16 20" fill="none" xmlns="http://www.w3.org/2000/svg">
<path id="Vector" d="M14 9.5H2V4.5H14M12.5 15.5C12.1022 15.5 11.7206 15.342 11.4393 15.0607C11.158 14.7794 11 14.3978 11 14C11 13.6022 11.158 13.2206 11.4393 12.9393C11.7206 12.658 12.1022 12.5 12.5 12.5C12.8978 12.5 13.2794 12.658 13.5607 12.9393C13.842 13.2206 14 13.6022 14 14C14 14.3978 13.842 14.7794 13.5607 15.0607C13.2794 15.342 12.8978 15.5 12.5 15.5ZM3.5 15.5C3.10218 15.5 2.72064 15.342 2.43934 15.0607C2.15804 14.7794 2 14.3978 2 14C2 13.6022 2.15804 13.2206 2.43934 12.9393C2.72064 12.658 3.10218 12.5 3.5 12.5C3.89782 12.5 4.27936 12.658 4.56066 12.9393C4.84196 13.2206 5 13.6022 5 14C5 14.3978 4.84196 14.7794 4.56066 15.0607C4.27936 15.342 3.89782 15.5 3.5 15.5ZM0 14.5C0 15.38 0.39 16.17 1 16.72V18.5C1 18.7652 1.10536 19.0196 1.29289 19.2071C1.48043 19.3946 1.73478 19.5 2 19.5H3C3.26522 19.5 3.51957 19.3946 3.70711 19.2071C3.89464 19.0196 4 18.7652 4 18.5V17.5H12V18.5C12 18.7652 12.1054 19.0196 12.2929 19.2071C12.4804 19.3946 12.7348 19.5 13 19.5H14C14.2652 19.5 14.5196 19.3946 14.7071 19.2071C14.8946 19.0196 15 18.7652 15 18.5V16.72C15.61 16.17 16 15.38 16 14.5V4.5C16 1 12.42 0.5 8 0.5C3.58 0.5 0 1 0 4.5V14.5Z" fill="#FF6D00"/>
</svg>
