<svg width="24" height="24" viewBox="0 0 24 24" fill="none" xmlns="http://www.w3.org/2000/svg">
<g id="Component 46">
<path id="Vector" d="M10.2798 5.80781C7.26105 6.39375 3.84527 7.1625 1.51793 7.80938C1.27277 7.91719 1.12324 8.09531 1.09324 8.29688C1.07402 8.43281 1.09839 8.60625 1.23293 8.82656C6.78293 12.2297 13.8376 10.4062 19.5657 8.28281C20.222 8.05312 20.3392 8.90625 19.8564 9.07031C14.297 11.1375 7.29386 13.0312 1.48746 9.94219C0.768395 10.4859 0.683082 10.9078 0.75527 11.2687C0.819489 11.5875 1.08105 11.9016 1.33324 12.0938C1.97496 12.5156 2.71043 12.9375 3.35871 13.2516C3.83027 13.4813 4.31027 13.6922 4.71105 13.8469C5.98605 14.3203 5.5548 15.0844 4.40402 14.6344C3.97605 14.4656 3.48058 14.25 2.99168 14.0109C2.34855 13.6875 1.75371 13.3875 1.19496 13.0219C0.903395 13.1859 0.780582 13.4531 0.767926 13.8047C0.804957 14.6578 1.24089 14.9391 1.85261 15.4406C2.19011 15.6797 2.60683 15.9328 3.03386 16.1672C3.48386 16.4156 3.94558 16.6406 4.33464 16.8047C5.29699 17.1703 4.76261 17.8547 4.00933 17.5828C3.58324 17.4047 3.09996 17.1656 2.62652 16.9078C2.15308 16.6453 1.69043 16.3641 1.30605 16.0875C1.16777 15.9891 1.04074 15.8953 0.924957 15.7969C0.805895 15.8859 0.759489 16.0453 0.758551 16.1625C0.753395 16.4062 0.906676 16.7391 1.00418 16.8328C3.66199 19.2938 8.18918 19.4672 12.5532 18.6797C16.9173 17.8922 21.0845 16.1578 22.847 15.0891H22.8517L22.8564 15.0844C22.997 15.0047 23.0392 14.8875 22.9736 14.5969C22.9079 14.3344 22.7064 13.9922 22.3736 13.7062C20.3345 14.4141 17.3345 15.5203 14.1282 16.2375C10.6173 17.0203 6.9048 17.3344 4.06183 15.975C3.61793 15.75 3.64324 15.0609 4.32527 15.3281C6.85793 16.5375 10.5142 16.1766 13.9454 15.4125C17.2361 14.6812 20.372 13.5 22.4298 12.7922C22.697 12.4828 22.8048 12.2672 22.8048 12.0891C22.8001 11.8875 22.6407 11.5547 22.1392 11.0344C16.3361 12.8062 9.77824 15.0422 4.41105 12.9234C3.74402 12.6094 4.09371 11.8969 4.72511 12.1359C9.82043 14.1516 16.4626 11.8641 22.4064 10.0688C22.9876 9.46875 23.2314 9.04688 23.2642 8.8125C23.2923 8.44219 22.9314 8.18437 22.697 8.01094H22.6923C20.8595 6.68906 19.3407 5.70469 16.5892 4.89844C14.4751 4.96875 12.2017 5.4375 10.2798 5.80781Z" fill="white"/>
</g>
</svg>
