<svg width="25" height="24" viewBox="0 0 25 24" fill="none" xmlns="http://www.w3.org/2000/svg">
<g id="Component 46">
<path id="Vector" d="M9.25 10C9.25 9.13805 9.59241 8.3114 10.2019 7.7019C10.8114 7.09241 11.638 6.75 12.5 6.75C13.362 6.75 14.1886 7.09241 14.7981 7.7019C15.4076 8.3114 15.75 9.13805 15.75 10C15.75 10.862 15.4076 11.6886 14.7981 12.2981C14.1886 12.9076 13.362 13.25 12.5 13.25C11.638 13.25 10.8114 12.9076 10.2019 12.2981C9.59241 11.6886 9.25 10.862 9.25 10Z" fill="white"/>
<path id="Vector_2" fill-rule="evenodd" clip-rule="evenodd" d="M4.27529 8.877C4.44163 6.86675 5.35752 4.99247 6.84126 3.62598C8.325 2.2595 10.2682 1.50066 12.2853 1.5H12.7173C14.7344 1.50066 16.6776 2.2595 18.1613 3.62598C19.6451 4.99247 20.561 6.86675 20.7273 8.877C20.9119 11.1214 20.219 13.3499 18.7943 15.094L14.0013 20.956C13.8196 21.1783 13.5908 21.3575 13.3314 21.4806C13.072 21.6036 12.7884 21.6675 12.5013 21.6675C12.2142 21.6675 11.9306 21.6036 11.6712 21.4806C11.4118 21.3575 11.183 21.1783 11.0013 20.956L6.2093 15.094C4.78426 13.3501 4.09099 11.1215 4.27529 8.877ZM12.5013 5.25C11.2415 5.25 10.0333 5.75045 9.14254 6.64124C8.25174 7.53204 7.75129 8.74022 7.75129 10C7.75129 11.2598 8.25174 12.468 9.14254 13.3588C10.0333 14.2496 11.2415 14.75 12.5013 14.75C13.7611 14.75 14.9693 14.2496 15.8601 13.3588C16.7508 12.468 17.2513 11.2598 17.2513 10C17.2513 8.74022 16.7508 7.53204 15.8601 6.64124C14.9693 5.75045 13.7611 5.25 12.5013 5.25Z" fill="white"/>
</g>
</svg>
