<svg width="24" height="25" viewBox="0 0 24 25" fill="none" xmlns="http://www.w3.org/2000/svg">
<g id="Component 49">
<path id="Vector" d="M14 20.0781H8C7.45 20.0781 6.97933 19.8825 6.588 19.4911C6.19667 19.0998 6.00067 18.6288 6 18.0781V8.07813C6 7.7948 6.096 7.55747 6.288 7.36613C6.48 7.1748 6.71733 7.0788 7 7.07813C7.28267 7.07747 7.52033 7.17347 7.713 7.36613C7.90567 7.5588 8.00133 7.79613 8 8.07813V18.0781H14C14.2833 18.0781 14.521 18.1741 14.713 18.3661C14.905 18.5581 15.0007 18.7955 15 19.0781C14.9993 19.3608 14.9033 19.5985 14.712 19.7911C14.5207 19.9838 14.2833 20.0795 14 20.0781ZM11.5 6.07813C10.95 6.07813 10.4793 5.88247 10.088 5.49113C9.69667 5.0998 9.50067 4.6288 9.5 4.07813C9.49933 3.52746 9.69533 3.0568 10.088 2.66613C10.4807 2.27547 10.9513 2.07947 11.5 2.07813C12.0487 2.0768 12.5197 2.2728 12.913 2.66613C13.3063 3.05947 13.502 3.53013 13.5 4.07813C13.498 4.62613 13.3023 5.09713 12.913 5.49113C12.5237 5.88513 12.0527 6.0808 11.5 6.07813ZM16 21.0781V17.0781H11C10.45 17.0781 9.97933 16.8825 9.588 16.4911C9.19667 16.0998 9.00067 15.6288 9 15.0781V9.57813C9 8.87813 9.24167 8.28646 9.725 7.80313C10.2083 7.3198 10.8 7.07813 11.5 7.07813C12.2 7.07813 12.7917 7.3198 13.275 7.80313C13.7583 8.28646 14 8.87813 14 9.57813V14.0781H16C16.55 14.0781 17.021 14.2741 17.413 14.6661C17.805 15.0581 18.0007 15.5288 18 16.0781V21.0781C18 21.3615 17.904 21.5991 17.712 21.7911C17.52 21.9831 17.2827 22.0788 17 22.0781C16.7173 22.0775 16.48 21.9815 16.288 21.7901C16.096 21.5988 16 21.3615 16 21.0781Z" fill="#01A338"/>
</g>
</svg>
