<svg width="24" height="24" viewBox="0 0 24 24" fill="none" xmlns="http://www.w3.org/2000/svg">
<g id="Component 46">
<path id="Vector" d="M6.03 12.0301L8.03 15.5001L5.5 18.6801L2 12.6201L6.03 12.0301ZM17 18.0001V15.2901C17.88 14.9001 18.5 14.0301 18.5 13.0001C18.5 12.4301 18.3 11.9001 17.97 11.5001L19.94 10.3501C20.95 9.76011 21.3 8.47011 20.71 7.46011L19.33 5.06011C19.0486 4.57511 18.587 4.22098 18.0456 4.07488C17.5043 3.92878 16.9272 4.00254 16.44 4.28011L8.31 9.00011C7.36 9.53011 7.03 10.7501 7.58 11.7101L9.08 14.3101C9.63 15.2601 10.86 15.5901 11.81 15.0401L13.69 13.9601C13.94 14.5501 14.41 15.0301 15 15.2901V18.0001C15 19.1001 15.9 20.0001 17 20.0001H22V18.0001H17Z" fill="white"/>
</g>
</svg>
