<svg width="24" height="25" viewBox="0 0 24 25" fill="none" xmlns="http://www.w3.org/2000/svg">
<g id="Component 49">
<path id="Vector" d="M14 20.0274H8C7.45 20.0274 6.97933 19.8317 6.588 19.4404C6.19667 19.049 6.00067 18.578 6 18.0274V8.02735C6 7.74402 6.096 7.50668 6.288 7.31535C6.48 7.12402 6.71733 7.02802 7 7.02735C7.28267 7.02668 7.52033 7.12268 7.713 7.31535C7.90567 7.50802 8.00133 7.74535 8 8.02735V18.0274H14C14.2833 18.0274 14.521 18.1234 14.713 18.3154C14.905 18.5074 15.0007 18.7447 15 19.0274C14.9993 19.31 14.9033 19.5477 14.712 19.7404C14.5207 19.933 14.2833 20.0287 14 20.0274ZM11.5 6.02735C10.95 6.02735 10.4793 5.83168 10.088 5.44035C9.69667 5.04902 9.50067 4.57802 9.5 4.02735C9.49933 3.47668 9.69533 3.00602 10.088 2.61535C10.4807 2.22468 10.9513 2.02868 11.5 2.02735C12.0487 2.02602 12.5197 2.22202 12.913 2.61535C13.3063 3.00868 13.502 3.47935 13.5 4.02735C13.498 4.57535 13.3023 5.04635 12.913 5.44035C12.5237 5.83435 12.0527 6.03002 11.5 6.02735ZM16 21.0274V17.0274H11C10.45 17.0274 9.97933 16.8317 9.588 16.4404C9.19667 16.049 9.00067 15.578 9 15.0274V9.52735C9 8.82735 9.24167 8.23568 9.725 7.75235C10.2083 7.26902 10.8 7.02735 11.5 7.02735C12.2 7.02735 12.7917 7.26902 13.275 7.75235C13.7583 8.23568 14 8.82735 14 9.52735V14.0274H16C16.55 14.0274 17.021 14.2234 17.413 14.6154C17.805 15.0074 18.0007 15.478 18 16.0274V21.0274C18 21.3107 17.904 21.5484 17.712 21.7404C17.52 21.9324 17.2827 22.028 17 22.0274C16.7173 22.0267 16.48 21.9307 16.288 21.7394C16.096 21.548 16 21.3107 16 21.0274Z" fill="black"/>
</g>
</svg>
