<svg width="24" height="24" viewBox="0 0 24 24" fill="none" xmlns="http://www.w3.org/2000/svg">
<g id="Component 48">
<path id="Union" fill-rule="evenodd" clip-rule="evenodd" d="M8 4C8 3.44772 8.44772 3 9 3H15C15.5523 3 16 3.44772 16 4V20C16 20.5523 15.5523 21 15 21H9C8.44772 21 8 20.5523 8 20V4ZM6 2C6 1.44772 6.44772 1 7 1H8H16H17C17.5523 1 18 1.44772 18 2V3V21V22C18 22.5523 17.5523 23 17 23H16H8H7C6.44772 23 6 22.5523 6 22V21V3V2ZM15 19C15 18.4477 14.5523 18 14 18H10C9.44772 18 9 18.4477 9 19C9 19.5523 9.44772 20 10 20H14C14.5523 20 15 19.5523 15 19Z" fill="#01A338"/>
</g>
</svg>
