<svg width="24" height="24" viewBox="0 0 24 24" fill="none" xmlns="http://www.w3.org/2000/svg">
<g id="Component 46">
<path id="Vector" d="M20.3358 2.79373C19.9167 2.79593 19.3676 2.93796 18.6967 3.25667C13.8394 2.91795 7.97718 3.62576 4.07006 4.85309C1.23848 3.54467 0.769869 4.83312 2.05677 6.54931C0.481962 11.2243 1.17234 15.975 2.84718 19.3738C2.33109 21.6066 3.64242 21.5065 4.77712 20.6137C12.782 21.0403 17.9879 19.8394 21.1777 17.395C22.3032 18.2964 23.1306 17.1135 22.6716 15.6674C23.2304 12.3013 22.2464 7.82473 20.9797 4.70895C21.606 3.60865 21.3557 2.78824 20.3358 2.79373ZM3.58331 6.4481C6.05127 9.30959 6.09637 15.8409 4.60274 19.7326C4.93302 15.4712 4.72017 9.24799 3.58331 6.4481Z" fill="white"/>
</g>
</svg>
