<svg width="24" height="24" viewBox="0 0 24 24" fill="none" xmlns="http://www.w3.org/2000/svg">
<g id="Component 46">
<path id="Vector" d="M10.5 17C9.95 17 9.47933 16.8043 9.088 16.413C8.69667 16.0217 8.50067 15.5507 8.5 15V9C8.5 8.45 8.696 7.97933 9.088 7.588C9.48 7.19667 9.95067 7.00067 10.5 7H13.5C14.05 7 14.521 7.196 14.913 7.588C15.305 7.98 15.5007 8.45067 15.5 9V15C15.5 15.55 15.3043 16.021 14.913 16.413C14.5217 16.805 14.0507 17.0007 13.5 17H10.5ZM1 17V15H5V13H3C2.45 13 1.97933 12.8043 1.588 12.413C1.19667 12.0217 1.00067 11.5507 1 11V9C1 8.45 1.196 7.97933 1.588 7.588C1.98 7.19667 2.45067 7.00067 3 7H7V9H3V11H5C5.55 11 6.021 11.196 6.413 11.588C6.805 11.98 7.00067 12.4507 7 13V15C7 15.55 6.80433 16.021 6.413 16.413C6.02167 16.805 5.55067 17.0007 5 17H1ZM17 17V15H21V13H19C18.45 13 17.9793 12.8043 17.588 12.413C17.1967 12.0217 17.0007 11.5507 17 11V9C17 8.45 17.196 7.97933 17.588 7.588C17.98 7.19667 18.4507 7.00067 19 7H23V9H19V11H21C21.55 11 22.021 11.196 22.413 11.588C22.805 11.98 23.0007 12.4507 23 13V15C23 15.55 22.8043 16.021 22.413 16.413C22.0217 16.805 21.5507 17.0007 21 17H17ZM10.5 15H13.5V9H10.5V15Z" fill="white"/>
</g>
</svg>
