<svg width="24" height="24" viewBox="0 0 24 24" fill="none" xmlns="http://www.w3.org/2000/svg">
<g id="Component 46">
<path id="Vector" fill-rule="evenodd" clip-rule="evenodd" d="M15.9921 2.01706C15.9226 2.12327 15.8581 2.23273 15.7991 2.34506L15.4761 2.92806L12.6491 4.31806L12.4811 4.40106C10.8551 5.23606 9.70905 6.80406 9.36505 8.63406C9.35505 8.68406 9.34605 8.73706 9.33105 8.82406L9.33005 8.83106L9.30005 9.00406C9.03139 10.5006 8.2984 11.8745 7.20505 12.9311L6.40105 13.7211C5.89705 14.2171 5.49105 14.6171 5.18705 14.9611C4.87705 15.3111 4.62705 15.6551 4.47705 16.0491C4.2795 16.5696 4.20937 17.1299 4.27252 17.6831C4.33567 18.2363 4.53026 18.7664 4.84005 19.2291C5.07605 19.5791 5.39805 19.8551 5.77905 20.1231C6.15205 20.3851 6.63805 20.6781 7.23905 21.0401L7.95205 21.4701C8.55305 21.8321 9.03905 22.1241 9.44405 22.3301C9.85605 22.5401 10.2501 22.6971 10.6691 22.7361C11.2188 22.786 11.7722 22.6942 12.2764 22.4694C12.7806 22.2446 13.2187 21.8944 13.5491 21.4521C13.8031 21.1171 13.9621 20.7201 14.0971 20.2681C14.2301 19.8231 14.3581 19.2581 14.5171 18.5531L14.7721 17.4321L14.8111 17.2611C15.1577 15.7848 15.9615 14.4556 17.1081 13.4631L17.1141 13.4581L17.2551 13.3321C18.6131 12.0951 19.3311 10.2781 19.2131 8.41806L19.1981 8.22606L18.9361 4.95906L19.2911 4.31706C19.3491 4.21406 19.4111 4.10106 19.4571 3.99906C19.5101 3.88306 19.5681 3.72506 19.5771 3.53206C19.5887 3.27478 19.5206 3.02017 19.3821 2.80306C19.2921 2.66841 19.1778 2.55174 19.0451 2.45906C18.947 2.39023 18.8459 2.32583 18.7421 2.26606L17.9271 1.77506C17.8195 1.70824 17.7094 1.64553 17.5971 1.58706C17.4448 1.509 17.2786 1.46176 17.1081 1.44806C16.8384 1.43182 16.5707 1.50339 16.3451 1.65206C16.2042 1.74924 16.0839 1.87328 15.9911 2.01706M15.9811 4.35006L17.4531 5.23706L17.7011 8.33806C17.7061 8.40206 17.7101 8.44106 17.7111 8.47206L16.6561 8.82306C16.3467 8.92648 16.0163 8.95064 15.6952 8.89333C15.3741 8.83603 15.0725 8.6991 14.8181 8.49506C14.303 8.08236 13.6803 7.82606 13.024 7.75658C12.3676 7.6871 11.7051 7.80735 11.1151 8.10306L11.0551 8.13306C11.4559 7.0445 12.2677 6.15658 13.3161 5.66006L15.9811 4.35006Z" fill="white"/>
</g>
</svg>
