<svg width="140" height="25" viewBox="0 0 140 25" fill="none" xmlns="http://www.w3.org/2000/svg">
<path d="M140 12.5L135 9.61325V15.3868L140 12.5ZM0 13H1.94444V12H0V13ZM5.83333 13H9.72222V12H5.83333V13ZM13.6111 13H17.5V12H13.6111V13ZM21.3889 13H25.2778V12H21.3889V13ZM29.1667 13H33.0556V12H29.1667V13ZM36.9444 13H40.8333V12H36.9444V13ZM44.7222 13H48.6111V12H44.7222V13ZM52.5 13H56.3889V12H52.5V13ZM60.2778 13H64.1667V12H60.2778V13ZM68.0556 13H71.9444V12H68.0556V13ZM75.8333 13H79.7222V12H75.8333V13ZM83.6111 13H87.5V12H83.6111V13ZM91.3889 13H95.2778V12H91.3889V13ZM99.1666 13H103.056V12H99.1666V13ZM106.944 13H110.833V12H106.944V13ZM114.722 13H118.611V12H114.722V13ZM122.5 13H126.389V12H122.5V13ZM130.278 13H134.167V12H130.278V13Z" fill="black"/>
<path d="M73 11.5H61V6.5H73M71.5 17.5C71.1022 17.5 70.7206 17.342 70.4393 17.0607C70.158 16.7794 70 16.3978 70 16C70 15.6022 70.158 15.2206 70.4393 14.9393C70.7206 14.658 71.1022 14.5 71.5 14.5C71.8978 14.5 72.2794 14.658 72.5607 14.9393C72.842 15.2206 73 15.6022 73 16C73 16.3978 72.842 16.7794 72.5607 17.0607C72.2794 17.342 71.8978 17.5 71.5 17.5ZM62.5 17.5C62.1022 17.5 61.7206 17.342 61.4393 17.0607C61.158 16.7794 61 16.3978 61 16C61 15.6022 61.158 15.2206 61.4393 14.9393C61.7206 14.658 62.1022 14.5 62.5 14.5C62.8978 14.5 63.2794 14.658 63.5607 14.9393C63.842 15.2206 64 15.6022 64 16C64 16.3978 63.842 16.7794 63.5607 17.0607C63.2794 17.342 62.8978 17.5 62.5 17.5ZM59 16.5C59 17.38 59.39 18.17 60 18.72V20.5C60 20.7652 60.1054 21.0196 60.2929 21.2071C60.4804 21.3946 60.7348 21.5 61 21.5H62C62.2652 21.5 62.5196 21.3946 62.7071 21.2071C62.8946 21.0196 63 20.7652 63 20.5V19.5H71V20.5C71 20.7652 71.1054 21.0196 71.2929 21.2071C71.4804 21.3946 71.7348 21.5 72 21.5H73C73.2652 21.5 73.5196 21.3946 73.7071 21.2071C73.8946 21.0196 74 20.7652 74 20.5V18.72C74.61 18.17 75 17.38 75 16.5V6.5C75 3 71.42 2.5 67 2.5C62.58 2.5 59 3 59 6.5V16.5Z" fill="black"/>
</svg>
